<?xml version="1.0" encoding="utf-8" ?><!-- created by svgstack.com | Attribution is required. --><svg xmlns="http://www.w3.org/2000/svg" xmlns:xlink="http://www.w3.org/1999/xlink" width="1024" height="1024"><path fill="#3F3E3E" transform="scale(2 2)" d="M86.3089 119.581C92.3277 119.267 98.5025 119.571 104.542 119.575L405.158 119.577C422.383 119.564 443.075 117.306 449.322 139.184C451.011 145.102 450.26 152.841 450.252 158.998L450.253 353.809C450.249 374.35 448.372 385.271 425.541 391.506C416.576 391.29 407.552 391.504 398.581 391.505L98.1896 391.52C94.2689 391.55 90.2918 391.815 86.3846 391.424C74.8711 390.273 63.5941 380.09 62.08 368.492C61.5214 364.213 61.7435 359.767 61.7418 355.457L61.741 157.853C61.7378 139.959 63.0174 122.535 86.3089 119.581ZM213.276 264.023C206.114 270.729 199.497 278.068 192.579 285.029L128.272 349.572C123.69 354.123 118.886 358.576 114.734 363.528C122.154 363.121 129.789 363.526 137.233 363.528L327.35 363.528L396.598 363.528C386.767 353.365 376.636 343.548 366.681 333.513L307.417 273.294C304.372 270.199 301.101 267.238 298.191 264.023C289.894 270.14 282.186 277.457 274.238 284.048C266.091 290.804 258.249 297.386 247.159 290.971C242.69 288.386 214.474 264.117 213.276 264.023ZM122.564 148.256L121.771 148.42L121.655 148.716C125.769 154.153 144.869 168.531 151.003 173.773L207.335 221.501C223.543 235.137 239.856 248.677 255.561 262.894C260.421 259.643 265.581 254.133 270.162 250.219L312.548 214.16C317.435 210.061 322.15 205.127 327.35 201.474C348.289 183.533 369.785 166.248 390.678 148.256L122.564 148.256ZM421.757 159.725C414.546 165.258 407.717 171.329 400.783 177.202L341.396 227.302C334.36 233.16 327.203 238.963 320.442 245.139C336.767 262.531 354.521 280.203 371.465 297.125L400.464 326.199C407.519 333.367 414.429 340.807 421.757 347.687C421.756 330.46 421.937 160.045 421.757 159.725ZM89.9654 158.841C89.5962 165.565 89.9624 172.427 89.9652 179.167L89.9654 347.687C95.6966 340.357 103.075 333.993 109.68 327.437L141.086 295.819C157.673 278.651 174.833 262.02 191.713 245.139C185.61 239.561 179.06 234.429 172.762 229.068L97.4633 165.518C95.0193 163.453 92.6033 160.564 89.9654 158.841Z"/></svg> 